HIERARCHY
ROOT Hips
{
	OFFSET	0.00	0.00	0.00
	CHANNELS 6 Xposition Yposition Zposition Zrotation Xrotation Yrotation
	JOINT Spine
	{
		OFFSET	 0.00	0.01	 0.00
		CHANNELS 3 Zrotation Xrotation Yrotation
		JOINT Spine1
		{
			OFFSET	 0.00	 2.45913012437421	 0.00
			CHANNELS 3 Zrotation Xrotation Yrotation
            JOINT Neck
            {
                OFFSET	 0.00	 2.48462964506057	 0.00
                CHANNELS 3 Zrotation Xrotation Yrotation
                JOINT Head
                {
                    OFFSET	 0.00	 0.927524780924562	 0.00
                    CHANNELS 3 Zrotation Xrotation Yrotation
                    End Site 
                    {
                        OFFSET	 0.00	 1.14999962169752	 0.00
                    }
                }
            }
			JOINT LeftShoulder
			{
				OFFSET	 0.00	 2.48462964506057	 0.00
				CHANNELS 3 Zrotation Xrotation Yrotation
				JOINT LeftUpArm
				{
					OFFSET	 0.00	 1.24881979654096	 0.00
					CHANNELS 3 Zrotation Xrotation Yrotation
					JOINT LeftForeArm
					{
						OFFSET	 0.00	2.59758046908119	 0.00
						CHANNELS 3 Zrotation Xrotation Yrotation
						JOINT LeftHand
						{
							OFFSET	 0.00	2.45542024364365	 0.00
							CHANNELS 3 Zrotation Xrotation Yrotation
							JOINT LeftHandThumb 
							{
								OFFSET	 0.00	0.00	 0.00
								CHANNELS 3 Zrotation Xrotation Yrotation
								End Site
								{
									OFFSET	 0.00	0.00	1.00000003353624
								}
							}
							JOINT L_Wrist_End 
							{
								OFFSET	 0.00	0.99999967115358	 0.00
								CHANNELS 3 Zrotation Xrotation Yrotation
								End Site 
								{
									OFFSET	 0.00	 0.00	 0.00
								}
							}
						}
					}
				}
			}
			JOINT RightShoulder
			{
				OFFSET	 0.00	 2.48462964506057	 0.00
				CHANNELS 3 Zrotation Xrotation Yrotation
				JOINT RightUpArm
				{
					OFFSET	 0.00	 1.24881979654096	 0.00
					CHANNELS 3 Zrotation Xrotation Yrotation
					JOINT RightForeArm
					{
						OFFSET	 0.00	2.59758046908119	 0.00
						CHANNELS 3 Zrotation Xrotation Yrotation
						JOINT RightHand
						{
							OFFSET	 0.00	2.45542024364365	 0.00
							CHANNELS 3 Zrotation Xrotation Yrotation
							JOINT RightHandThumb 
							{
								OFFSET	 0.00	0.00	 0.00
								CHANNELS 3 Zrotation Xrotation Yrotation
								End Site
								{
									OFFSET	 0.00	0.00	1.00000003353624
								}
							}
							JOINT R_Wrist_End 
							{
								OFFSET	 0.00	0.99999967115358	 0.00
								CHANNELS 3 Zrotation Xrotation Yrotation
								End Site 
								{
									OFFSET	 0.00	 0.00	 0.00
								}
							}
						}
					}
				}
			}
		}
	}
	JOINT LeftUpLeg
	{
		OFFSET	 1.2719394002717	 0.00	 0.00
		CHANNELS 3 Zrotation Xrotation Yrotation
		JOINT LeftLowLeg
		{
			OFFSET	 0.00	-4.3429100912261	 0.00
			CHANNELS 3 Zrotation Xrotation Yrotation
			JOINT LeftFoot
			{
				OFFSET	 0.00	-4.48767017425826	 0.00
				CHANNELS 3 Zrotation Xrotation Yrotation
				JOINT LeftToeBase
                {
                    OFFSET	 0.00	0.00	 1.51507020887566
                    CHANNELS 3 Zrotation Xrotation Yrotation
                    End Site 
                    {
                        OFFSET	 0.00	0.00	 0.75000010571191
                    }
                }
			}
		}
	}
	JOINT RightUpLeg
	{
		OFFSET	 -1.2719393604653	 0.00	 0.00
		CHANNELS 3 Zrotation Xrotation Yrotation
		JOINT RightLowLeg
		{
			OFFSET	 0.00	-4.3429100912261	 0.00
			CHANNELS 3 Zrotation Xrotation Yrotation
			JOINT RightFoot
			{
				OFFSET	 0.00	-4.48767017425826	 0.00
				CHANNELS 3 Zrotation Xrotation Yrotation
				JOINT RightToeBase
                {
                    OFFSET	 0.00	0.00	 1.51507020887566
                    CHANNELS 3 Zrotation Xrotation Yrotation
                    End Site 
                    {
                        OFFSET	 0.00	0.00	 0.749999965609858
                    }
                }   
			}
		}
	}
}
MOTION 
Frames:	20 
Frame Time: 0.02 
 -3.554429931640625 1.8958500671386718 9.295289916992187 141.2 84.9151 1298.97 2.83426 -18.4409 0.00167904 -6.96883 11.9223 3.93306 18.2779 48.9838 351.347 -50.7359 -80.523 -43.5807 -116.8562 -3.43048 364.067 -45.2898 4.66285 26.2957 0.0 19.231 0.0 4.28582 -16.1177 -8.6588 0.0 0.0 0.0 0.0 0.0 0.0 121.2658 -6.7226 -358.502 47.0889 -1.53644 -19.7457 0.0 21.8586 0.0 5.96684 -9.78121 16.7146 0.0 0.0 0.0 0.0 0.0 0.0 -5.15566 -4.00708 -11.2589 0.0 12.7296 0.0 -7.25353 -1.7311993 10.1116 0.0 -23.80067 0.0 4.89481 -5.34457 19.6325 0.0 18.1394 0.0 23.3892 -9.7519 -7.67731 0.0 -19.57433 0.0 
  -3.5552499389648435 1.8917999267578125 9.294569702148438 141.769 84.8288 1298.32 2.84795 -18.5989 0.0364326 -6.99605 11.9642 3.97537 18.2385 48.8989 351.395 -50.3201 -80.5071 -43.2341 -116.841995 -3.35961 363.886 -45.3686 4.57249 26.257 0.0 18.9956 0.0 4.09077 -16.2769 -8.76585 0.0 0.0 0.0 0.0 0.0 0.0 121.2514 -6.67566 -358.501 47.1317 -1.46536 -19.7264 0.0 21.6829 0.0 5.77006 -9.49403 15.9277 0.0 0.0 0.0 0.0 0.0 0.0 -5.17466 -4.08313 -11.264 0.0 12.7526 0.0 -7.2508 -1.7814007 10.2033 0.0 -23.70558 0.0 4.88201 -5.44821 19.5666 0.0 18.173 0.0 23.3799 -9.725 -7.55006 0.0 -19.58639 0.0 
  -3.5563699340820314 1.8885099792480469 9.293499755859376 141.648 84.8458 1298.38 2.86132 -18.6161 0.0611158 -7.00878 11.9662 3.99011 18.2044 48.9265 351.45 -50.0041 -80.4716 -42.9967 -116.871704 -3.36163 363.961 -45.3623 4.70112 26.0775 0.0 18.8867 0.0 4.03357 -16.3983 -8.92149 0.0 0.0 0.0 0.0 0.0 0.0 121.2559 -6.6138 -358.509 47.1289 -1.414 -19.7872 0.0 21.5766 0.0 5.79341 -9.64617 15.7175 0.0 0.0 0.0 0.0 0.0 0.0 -5.17055 -4.06393 -11.2147 0.0 12.8056 0.0 -7.23544 -1.8369999 10.2257 0.0 -23.68488 0.0 4.90128 -5.44212 19.5808 0.0 18.2319 0.0 23.3663 -9.737801 -7.50111 0.0 -19.57726 0.0 
  -3.5575799560546875 1.8828599548339844 9.293079833984375 141.791 84.8453 1298.17 2.90213 -18.7277 0.105237 -7.06618 12.0298 4.01163 18.3086 48.9908 351.361 -49.5883 -80.4385 -42.593 -116.883896 -3.36211 363.962 -45.3443 4.73889 25.9673 0.0 18.9147 0.0 4.17097 -16.3503 -8.19271 0.0 0.0 0.0 0.0 0.0 0.0 121.251 -6.56774 -358.53 47.1499 -1.39014 -19.8378 0.0 21.5457 0.0 5.74502 -9.69137 15.5283 0.0 0.0 0.0 0.0 0.0 0.0 -5.1543 -4.04014 -11.1571 0.0 12.8233 0.0 -7.22049 -1.8799 10.249 0.0 -23.6584 0.0 4.92439 -5.4085 19.6487 0.0 18.2114 0.0 23.3116 -9.7299 -7.53794 0.0 -19.58903 0.0 
  -3.5587200927734375 1.8766700744628906 9.29302001953125 141.846 84.8469 1298.04 2.96748 -18.8639 0.17624 -7.17562 12.1387 4.04072 18.4628 49.0712 351.232 -49.0303 -80.4047 -42.0011 -116.8696 -3.35806 363.939 -45.2994 4.73994 25.879 0.0 19.0744 0.0 4.30872 -16.2482 -7.92552 0.0 0.0 0.0 0.0 0.0 0.0 121.2448 -6.53084 -358.547 47.2061 -1.35812 -19.8818 0.0 21.5109 0.0 5.65856 -9.58485 15.2213 0.0 0.0 0.0 0.0 0.0 0.0 -5.14335 -3.99202 -11.1444 0.0 12.8186 0.0 -7.19669 -1.9164009 10.3141 0.0 -23.60347 0.0 4.93203 -5.3732 19.6408 0.0 18.198 0.0 23.3068 -9.708 -7.47205 0.0 -19.54979 0.0 
  -3.5596099853515626 1.8704899597167968 9.292789916992188 141.65 84.8839 1298.21 3.06583 -18.8944 0.280103 -7.33249 12.1382 4.02907 18.585 49.196 351.152 -48.6062 -80.38 -41.6107 -116.8026 -3.35256 363.914 -45.284 4.67696 25.7561 0.0 19.2031 0.0 4.37988 -16.0578 -7.92556 0.0 0.0 0.0 0.0 0.0 0.0 121.3492 -6.60074 -358.569 47.1394 -1.30515 -19.9711 0.0 21.6722 0.0 5.76808 -10.0048 15.1334 0.0 0.0 0.0 0.0 0.0 0.0 -5.12283 -3.90162 -11.0867 0.0 12.7967 0.0 -7.17539 -1.9337997 10.2948 0.0 -23.58501 0.0 4.93447 -5.26768 19.6124 0.0 18.1338 0.0 23.267 -9.684999 -7.46577 0.0 -19.58542 0.0 
  -3.5604098510742186 1.8646400451660157 9.292589721679688 140.959 84.9493 1298.84 3.10102 -18.9088 0.31476 -7.40863 12.215 4.03607 18.6237 49.291 351.136 -48.3234 -80.3402 -41.3469 -116.8114 -3.4188 363.888 -45.2617 4.70899 25.3556 0.0 19.3523 0.0 4.48225 -15.842 -6.9807 0.0 0.0 0.0 0.0 0.0 0.0 121.3458 -6.59286 -358.57 47.1334 -1.26501 -20.1303 0.0 21.7889 0.0 5.7111 -10.0373 15.3101 0.0 0.0 0.0 0.0 0.0 0.0 -5.12758 -3.76969 -11.0814 0.0 12.7974 0.0 -7.16796 -1.9617004 10.3565 0.0 -23.54142 0.0 4.93837 -5.15645 19.6478 0.0 18.1563 0.0 23.2732 -9.6987 -7.43831 0.0 -19.55626 0.0 
  -3.562250061035156 1.858209991455078 9.292249755859375 140.296 85.0111 1299.44 3.08042 -18.8972 0.317064 -7.42088 12.2357 4.05969 18.6683 49.4253 351.116 -48.3263 -80.3242 -41.3881 -116.8292 -3.4776 363.885 -45.2376 4.6877 24.9338 0.0 19.578 0.0 4.79859 -15.5495 -6.55445 0.0 0.0 0.0 0.0 0.0 0.0 121.2482 -6.62783 -358.568 47.2265 -1.29107 -20.18 0.0 21.9251 0.0 5.43961 -9.46343 14.6823 0.0 0.0 0.0 0.0 0.0 0.0 -5.11411 -3.63643 -10.992 0.0 12.7862 0.0 -7.16673 -1.9815998 10.3357 0.0 -23.517601 0.0 4.95616 -5.06581 19.6835 0.0 18.2192 0.0 23.2444 -9.698 -7.42553 0.0 -19.65036 0.0 
  -3.5635400390625 1.8531700134277345 9.291900024414062 140.136 85.0154 1299.54 3.07402 -18.9523 0.323722 -7.44148 12.2786 4.08345 18.6798 49.4418 351.09 -48.1063 -80.2737 -41.194 -116.8273 -3.55555 363.837 -45.223 4.66869 24.7302 0.0 19.7679 0.0 5.03835 -15.513 -6.6463 0.0 0.0 0.0 0.0 0.0 0.0 121.2258 -6.63129 -358.559 47.212 -1.29865 -20.3138 0.0 22.075 0.0 5.46245 -9.58355 14.2763 0.0 0.0 0.0 0.0 0.0 0.0 -5.10928 -3.57421 -10.9192 0.0 12.757 0.0 -7.17631 -1.9953995 10.3266 0.0 -23.50897 0.0 4.97006 -5.03633 19.7631 0.0 18.2477 0.0 23.2255 -9.7223 -7.45126 0.0 -19.58729 0.0 
  -3.564649963378906 1.848800048828125 9.2914599609375 140.039 85.0217 1299.58 3.07845 -18.9556 0.345881 -7.47236 12.2575 4.09218 18.6696 49.5007 351.117 -48.1308 -80.2686 -41.2668 -116.8226 -3.63043 363.802 -45.2061 4.63852 24.5615 0.0 19.913 0.0 5.30154 -15.4065 -6.52137 0.0 0.0 0.0 0.0 0.0 0.0 121.2134 -6.65538 -358.549 47.1904 -1.3266 -20.4722 0.0 22.2509 0.0 5.33961 -9.45174 14.3319 0.0 0.0 0.0 0.0 0.0 0.0 -5.10821 -3.52428 -10.9247 0.0 12.745 0.0 -7.17135 -2.0310993 10.3909 0.0 -23.50436 0.0 4.97089 -5.0022 19.7364 0.0 18.2413 0.0 23.1597 -9.712601 -7.41889 0.0 -19.59169 0.0 
  -3.56572998046875 1.8454100036621093 9.291119995117187 140.071 85.012 1299.52 3.06686 -18.9736 0.357316 -7.48533 12.2292 4.1079 18.7888 49.5135 350.963 -48.0469 -80.2414 -41.1566 -116.8099 -3.65869 363.802 -45.1987 4.61505 24.4983 0.0 19.994 0.0 5.44073 -15.4069 -6.01942 0.0 0.0 0.0 0.0 0.0 0.0 121.2021 -6.67245 -358.56 47.1744 -1.38235 -20.5893 0.0 22.3804 0.0 5.42908 -9.44076 15.7117 0.0 0.0 0.0 0.0 0.0 0.0 -5.10741 -3.5109 -10.924 0.0 12.7499 0.0 -7.18333 -2.0615005 10.4116 0.0 -23.49266 0.0 4.97344 -4.99503 19.7404 0.0 18.247 0.0 23.1295 -9.7185 -7.40406 0.0 -19.59043 0.0 
  -3.5664401245117188 1.841790008544922 9.2910498046875 140.166 85.0093 1299.41 3.0569 -19.0285 0.351185 -7.49471 12.2679 4.12199 18.8317 49.521 350.909 -47.9013 -80.2162 -41.0055 -116.801 -3.66323 363.795 -45.1944 4.57742 24.3963 0.0 20.0825 0.0 5.50622 -15.4282 -5.85846 0.0 0.0 0.0 0.0 0.0 0.0 121.1616 -6.65995 -358.563 47.204 -1.42214 -20.6678 0.0 22.4535 0.0 5.33231 -9.42038 15.3503 0.0 0.0 0.0 0.0 0.0 0.0 -5.10584 -3.50027 -10.979 0.0 12.7678 0.0 -7.17275 -2.0939999 10.4786 0.0 -23.4879 0.0 4.99346 -4.97905 19.823 0.0 18.2566 0.0 23.1193 -9.751801 -7.46379 0.0 -19.588009 0.0 
  -3.568139953613281 1.8368600463867188 9.29093017578125 140.145 85.021 1299.43 2.98487 -19.135 0.300017 -7.44409 12.4188 4.19127 18.9221 49.5133 350.784 -47.565 -80.1556 -40.6382 -116.739 -3.62014 363.757 -45.2861 4.50579 24.2303 0.0 20.1803 0.0 5.61351 -15.3733 -5.44738 0.0 0.0 0.0 0.0 0.0 0.0 121.0771 -6.65149 -358.588 47.2407 -1.44728 -20.7323 0.0 22.6512 0.0 5.21709 -9.55931 14.9851 0.0 0.0 0.0 0.0 0.0 0.0 -5.09779 -3.50735 -10.9614 0.0 12.8694 0.0 -7.19689 -2.1527996 10.4533 0.0 -23.564709 0.0 5.00569 -4.94149 19.7939 0.0 18.2591 0.0 23.1273 -9.752001 -7.42778 0.0 -19.56387 0.0 
  -3.5692999267578127 1.8329299926757812 9.29072998046875 140.013 85.0399 1299.56 2.9452 -19.2045 0.261278 -7.43557 12.5278 4.21905 18.957 49.6187 350.773 -47.2045 -80.0976 -40.3124 -116.6694 -3.61343 363.77 -45.3709 4.44699 24.0246 0.0 20.2486 0.0 5.67019 -15.3244 -5.35755 0.0 0.0 0.0 0.0 0.0 0.0 120.9831 -6.60517 -358.644 47.3334 -1.4849 -20.7213 0.0 22.7468 0.0 5.25705 -9.65852 15.1018 0.0 0.0 0.0 0.0 0.0 0.0 -5.11037 -3.52312 -11.0737 0.0 13.0114 0.0 -7.21627 -2.231001 10.5427 0.0 -23.58405 0.0 5.01604 -4.9306 19.7083 0.0 18.3232 0.0 23.1034 -9.7383995 -7.35947 0.0 -19.5924 0.0 
  -3.5702801513671876 1.8252900695800782 9.290440063476563 139.599 85.1043 1300.01 2.9614 -19.3053 0.231353 -7.54545 12.6179 4.16795 19.2493 50.2174 350.592 -47.0561 -80.0268 -40.2484 -116.5187 -3.68446 363.913 -45.4773 4.44629 23.7263 0.0 20.2626 0.0 5.60556 -15.2623 -6.22625 0.0 0.0 0.0 0.0 0.0 0.0 120.8921 -6.51061 -358.964 47.4803 -1.41399 -20.6332 0.0 22.7922 0.0 5.27268 -9.6117 15.4364 0.0 0.0 0.0 0.0 0.0 0.0 -5.12675 -3.51538 -11.2106 0.0 13.2523 0.0 -7.2296 -2.349701 10.6245 0.0 -23.608631 0.0 5.04559 -4.84449 19.6679 0.0 18.4012 0.0 23.051 -9.764 -7.38646 0.0 -19.62895 0.0 
  -3.571300048828125 1.8164300537109375 9.289650268554688 138.75 85.1967 1300.9 2.92427 -19.5642 0.182212 -7.58759 12.9739 4.24544 19.8473 50.9722 350.009 -46.8795 -79.8382 -40.0006 -116.3929 -3.60119 364.093 -45.5999 4.52102 23.4198 0.0 20.2352 0.0 5.45688 -15.3836 -6.81547 0.0 0.0 0.0 0.0 0.0 0.0 120.7561 -6.45806 -359.167 47.6736 -1.27492 -20.5109 0.0 22.7071 0.0 5.42169 -9.65004 16.264 0.0 0.0 0.0 0.0 0.0 0.0 -5.13346 -3.42959 -11.2484 0.0 13.4322 0.0 -7.26003 -2.4573994 10.5988 0.0 -23.662071 0.0 5.07659 -4.72283 19.6333 0.0 18.5189 0.0 23.0054 -9.834801 -7.42008 0.0 -19.67944 0.0 
  -3.5724301147460937 1.806179962158203 9.288519897460937 137.273 85.3006 1302.33 2.86897 -19.8749 0.133497 -7.5984 13.278 4.34203 20.979 52.3631 348.772 -46.8278 -79.3432 -39.5949 -116.3386 -3.5217 364.351 -45.6719 4.61778 23.0466 0.0 20.0974 0.0 5.12866 -15.6013 -6.77332 0.0 0.0 0.0 0.0 0.0 0.0 120.63 -6.3621 -359.549 47.823 -1.01799 -20.389 0.0 22.5373 0.0 5.56303 -9.8529 16.062 0.0 0.0 0.0 0.0 0.0 0.0 -5.14718 -3.25765 -11.1439 0.0 13.5443 0.0 -7.28865 -2.5517998 10.513 0.0 -23.75882 0.0 5.07235 -4.58108 19.5336 0.0 18.6743 0.0 23.0617 -9.916401 -7.26626 0.0 -19.72694 0.0 
  -3.572179870605469 1.7940199279785156 9.286610107421875 135.895 85.3612 1303.7 2.89023 -20.2366 0.143703 -7.72945 13.3821 4.34995 22.5216 54.7078 347.213 -46.9073 -78.575 -39.5395 -116.2014 -3.48556 364.687 -45.7826 4.6946 22.6938 0.0 19.8697 0.0 4.66058 -15.7071 -8.62634 0.0 0.0 0.0 0.0 0.0 0.0 120.6004 -6.27737 -359.915 47.9013 -0.78592 -20.4189 0.0 22.2693 0.0 5.82262 -10.2194 19.1194 0.0 0.0 0.0 0.0 0.0 0.0 -5.18293 -3.1286 -10.9698 0.0 13.6888 0.0 -7.32181 -2.6828995 10.3389 0.0 -23.82959 0.0 5.03012 -4.48568 19.3633 0.0 18.8784 0.0 23.0786 -10.0107 -7.03992 0.0 -19.7985 0.0 
  -3.5720999145507815 1.7812800598144531 9.285159912109375 135.35 85.3726 1304.21 2.98206 -20.7549 0.229988 -7.91231 13.4878 4.37318 24.6165 57.7235 345.195 -47.0101 -77.6437 -39.5896 -116.1004 -3.49954 364.898 -45.822 4.80095 22.5497 0.0 19.5629 0.0 4.1153 -15.9891 -8.52303 0.0 0.0 0.0 0.0 0.0 0.0 120.6032 -6.35349 -360.143 48.0176 -0.56008 -20.3389 0.0 21.9102 0.0 6.07702 -10.1238 19.9228 0.0 0.0 0.0 0.0 0.0 0.0 -5.20249 -3.07191 -10.834 0.0 13.8262 0.0 -7.35485 -2.8159008 10.2137 0.0 -23.95475 0.0 5.02771 -4.50644 19.3077 0.0 19.1627 0.0 23.0644 -10.093901 -6.87906 0.0 -19.93471 0.0 
  -3.57239990234375 1.763249969482422 9.283590087890625 136.058 85.26 1303.41 3.24274 -21.3112 0.640113 -8.34037 13.2297 4.43974 28.6198 61.0442 341.209 -47.0293 -76.7454 -39.393 -115.8882 -3.56458 364.923 -45.7879 4.69552 22.9271 0.0 19.273 0.0 3.76576 -16.0782 -9.46401 0.0 0.0 0.0 0.0 0.0 0.0 120.9298 -6.82175 -359.905 47.8924 -0.601947 -20.6833 0.0 21.6313 0.0 6.61257 -10.4419 20.3661 0.0 0.0 0.0 0.0 0.0 0.0 -5.22405 -3.12044 -10.542 0.0 13.922 0.0 -7.32732 -2.9286995 10.0718 0.0 -24.085941 0.0 5.01967 -4.63091 19.4131 0.0 19.4165 0.0 22.9371 -10.2325 -6.80086 0.0 -19.9569 0.0 
